<?xml version="1.0" encoding="UTF-8" standalone="no"?>
<!-- Created with Inkscape (http://www.inkscape.org/) -->

<svg
   xmlns:dc="http://purl.org/dc/elements/1.1/"
   xmlns:cc="http://creativecommons.org/ns#"
   xmlns:rdf="http://www.w3.org/1999/02/22-rdf-syntax-ns#"
   xmlns:svg="http://www.w3.org/2000/svg"
   xmlns="http://www.w3.org/2000/svg"
   xmlns:sodipodi="http://sodipodi.sourceforge.net/DTD/sodipodi-0.dtd"
   xmlns:inkscape="http://www.inkscape.org/namespaces/inkscape"
   width="256"
   height="240"
   id="svg3759"
   version="1.1"
   inkscape:version="0.48.4 r9939"
   sodipodi:docname="reactor_icons_256x240.svg"
   inkscape:export-filename="C:\Users\Teacher\Google Drive\SEI\reactor\public_html\images\reactor_icons_256x240.png"
   inkscape:export-xdpi="90"
   inkscape:export-ydpi="90">
  <defs
     id="defs3761" />
  <sodipodi:namedview
     id="base"
     pagecolor="#ffffff"
     bordercolor="#666666"
     borderopacity="1.0"
     inkscape:pageopacity="0.0"
     inkscape:pageshadow="2"
     inkscape:zoom="1.979899"
     inkscape:cx="139.36128"
     inkscape:cy="241.75501"
     inkscape:document-units="px"
     inkscape:current-layer="layer1"
     showgrid="true"
     inkscape:window-width="1366"
     inkscape:window-height="706"
     inkscape:window-x="-8"
     inkscape:window-y="-8"
     inkscape:window-maximized="1">
    <inkscape:grid
       type="xygrid"
       id="grid4416"
       empspacing="5"
       visible="true"
       enabled="true"
       snapvisiblegridlinesonly="true" />
  </sodipodi:namedview>
  <metadata
     id="metadata3764">
    <rdf:RDF>
      <cc:Work
         rdf:about="">
        <dc:format>image/svg+xml</dc:format>
        <dc:type
           rdf:resource="http://purl.org/dc/dcmitype/StillImage" />
        <dc:title></dc:title>
      </cc:Work>
    </rdf:RDF>
  </metadata>
  <g
     inkscape:label="Layer 1"
     inkscape:groupmode="layer"
     id="layer1"
     transform="translate(0,-812.36218)">
    <g
       id="g4418"
       transform="translate(-3.3461303,-4.1668793)"
       style="fill:#636363;fill-opacity:1">
      <path
         id="path3778"
         transform="translate(0,812.36218)"
         d="m 11.4375,4.8125 c -4.0928244,0 -7.40625,3.3134256 -7.40625,7.40625 0,4.092824 3.3134256,7.4375 7.40625,7.4375 4.092824,0 7.40625,-3.344676 7.40625,-7.4375 0,-4.0928244 -3.313426,-7.40625 -7.40625,-7.40625 z m 0,0.40625 c 3.870924,0 7,3.1290757 7,7 0,3.870924 -3.129076,7.03125 -7,7.03125 -3.8709243,0 -7.03125,-3.160326 -7.03125,-7.03125 0,-3.8709243 3.1603257,-7 7.03125,-7 z"
         style="fill:#636363;fill-opacity:1;stroke:none"
         inkscape:connector-curvature="0" />
      <path
         transform="matrix(0.15662649,0,0,0.15662649,9.6455465,822.67146)"
         d="m 18.794642,12.276785 c 0,4.092824 -3.317889,7.410714 -7.410714,7.410714 -4.0928241,0 -7.4107139,-3.31789 -7.4107139,-7.410714 0,-4.0928245 3.3178898,-7.4107143 7.4107139,-7.4107143 4.092825,0 7.410714,3.3178898 7.410714,7.4107143 z"
         sodipodi:ry="7.4107141"
         sodipodi:rx="7.4107141"
         sodipodi:cy="12.276785"
         sodipodi:cx="11.383928"
         id="path3778-5-0"
         style="fill:#636363;fill-opacity:1;stroke:none"
         sodipodi:type="arc" />
      <path
         id="path4342"
         transform="translate(0,812.36218)"
         d="M 8.09375,6.5625 C 6.561012,7.61905 5.157717,9.12005 4.8125,12 l 4.84375,0.125 c 0.032429,-0.591226 0.3423905,-1.105761 0.8125,-1.40625 L 8.09375,6.5625 z"
         style="fill:#636363;fill-opacity:1;stroke:none"
         inkscape:connector-curvature="0" />
      <path
         id="path4342-8"
         transform="translate(0,812.36218)"
         d="M 14.90625,6.65625 12.4375,10.75 c 0.466437,0.315119 0.770238,0.834857 0.78125,1.4375 l 4.78125,0 C 17.85137,10.33184 17.227752,8.39519 14.90625,6.65625 z"
         style="fill:#636363;fill-opacity:1;stroke:none"
         inkscape:connector-curvature="0" />
      <path
         id="path4342-3"
         transform="translate(0,812.36218)"
         d="m 10.65625,13.84375 -2.46875,4.25 c 1.6813681,0.79911 3.677032,1.23476 6.34375,0.09375 l -2.375,-4.3125 -0.03125,0 c -0.21364,0.09036 -0.440944,0.15625 -0.6875,0.15625 -0.273305,0 -0.549667,-0.07774 -0.78125,-0.1875 z"
         style="fill:#636363;fill-opacity:1;stroke:none"
         inkscape:connector-curvature="0" />
    </g>
  </g>
</svg>
